# Blender 4.0.2
# www.blender.org
mtllib grass.mtl
o Plane.002
v 16.478619 0.482632 2.528811
v 25.633778 0.482632 2.528811
v 16.478619 0.482632 -6.626348
v 25.633778 0.482632 -6.626348
v 16.478619 0.482632 -6.594573
v 25.633778 0.482632 -6.594573
v 16.478619 0.482632 -15.749731
v 25.633778 0.482632 -15.749731
v 7.505807 0.482632 -6.537368
v 16.660965 0.482632 -6.537368
v 7.505807 0.482632 -15.692526
v 16.660965 0.482632 -15.692526
v 7.419952 0.482632 2.528811
v 16.575109 0.482632 2.528811
v 7.419952 0.482632 -6.626348
v 16.575109 0.482632 -6.626348
v -1.190853 0.482632 2.528811
v 7.964304 0.482632 2.528811
v -1.190853 0.482632 -6.626348
v 7.964304 0.482632 -6.626348
v -1.190853 0.482632 -6.594573
v 7.964304 0.482632 -6.594573
v -1.190853 0.482632 -15.749731
v 7.964304 0.482632 -15.749731
v -10.163666 0.482632 -6.537368
v -1.008509 0.482632 -6.537368
v -10.163666 0.482632 -15.692526
v -1.008509 0.482632 -15.692526
v -10.249521 0.482632 2.528811
v -1.094362 0.482632 2.528811
v -10.249521 0.482632 -6.626348
v -1.094362 0.482632 -6.626348
v -1.190853 0.482632 -15.647238
v 7.964304 0.482632 -15.647238
v -1.190853 0.482632 -24.802399
v 7.964304 0.482632 -24.802399
v -1.190853 0.482632 -24.770624
v 7.964304 0.482632 -24.770624
v -1.190853 0.482632 -33.925777
v 7.964304 0.482632 -33.925777
v -10.163666 0.482632 -24.713417
v -1.008509 0.482632 -24.713417
v -10.163666 0.482632 -33.868572
v -1.008509 0.482632 -33.868572
v -10.249521 0.482632 -15.647238
v -1.094362 0.482632 -15.647238
v -10.249521 0.482632 -24.802399
v -1.094362 0.482632 -24.802399
v 16.478619 0.482632 -15.446730
v 25.633776 0.482632 -15.446730
v 16.478619 0.482632 -24.601891
v 25.633776 0.482632 -24.601891
v 16.478619 0.482632 -24.570116
v 25.633776 0.482632 -24.570116
v 16.478619 0.482632 -33.725269
v 25.633776 0.482632 -33.725269
v 7.505806 0.482632 -24.512909
v 16.660963 0.482632 -24.512909
v 7.505806 0.482632 -33.668064
v 16.660963 0.482632 -33.668064
v 7.419951 0.482632 -15.446730
v 16.575109 0.482632 -15.446730
v 7.419951 0.482632 -24.601891
v 16.575109 0.482632 -24.601891
v -18.855663 0.482632 2.528811
v -9.700506 0.482632 2.528811
v -18.855663 0.482632 -6.626348
v -9.700506 0.482632 -6.626348
v -18.855663 0.482632 -6.594573
v -9.700506 0.482632 -6.594573
v -18.855663 0.482632 -15.749731
v -9.700506 0.482632 -15.749731
v -27.828480 0.482632 -6.537368
v -18.673321 0.482632 -6.537368
v -27.828480 0.482632 -15.692526
v -18.673321 0.482632 -15.692526
v -27.914333 0.482632 2.528811
v -18.759174 0.482632 2.528811
v -27.914333 0.482632 -6.626348
v -18.759174 0.482632 -6.626348
v -36.525135 0.482632 2.528811
v -27.369976 0.482632 2.528811
v -36.525135 0.482632 -6.626348
v -27.369976 0.482632 -6.626348
v -36.525135 0.482632 -6.594573
v -27.369976 0.482632 -6.594573
v -36.525135 0.482632 -15.749731
v -27.369976 0.482632 -15.749731
v -45.497948 0.482632 -6.537368
v -36.342793 0.482632 -6.537368
v -45.497948 0.482632 -15.692526
v -36.342793 0.482632 -15.692526
v -45.583809 0.482632 2.528811
v -36.428650 0.482632 2.528811
v -45.583809 0.482632 -6.626348
v -36.428650 0.482632 -6.626348
v -36.525135 0.482632 -15.647238
v -27.369976 0.482632 -15.647238
v -36.525135 0.482632 -24.802399
v -27.369976 0.482632 -24.802399
v -36.525135 0.482632 -24.770624
v -27.369976 0.482632 -24.770624
v -36.525135 0.482632 -33.925777
v -27.369976 0.482632 -33.925777
v -45.497948 0.482632 -24.713417
v -36.342793 0.482632 -24.713417
v -45.497948 0.482632 -33.868572
v -36.342793 0.482632 -33.868572
v -45.583809 0.482632 -15.647238
v -36.428650 0.482632 -15.647238
v -45.583809 0.482632 -24.802399
v -36.428650 0.482632 -24.802399
v -18.855663 0.482632 -15.446730
v -9.700506 0.482632 -15.446730
v -18.855663 0.482632 -24.601891
v -9.700506 0.482632 -24.601891
v -18.855663 0.482632 -24.570116
v -9.700506 0.482632 -24.570116
v -18.855663 0.482632 -33.725269
v -9.700506 0.482632 -33.725269
v -27.828480 0.482632 -24.512909
v -18.673321 0.482632 -24.512909
v -27.828480 0.482632 -33.668064
v -18.673321 0.482632 -33.668064
v -27.914333 0.482632 -15.446730
v -18.759174 0.482632 -15.446730
v -27.914333 0.482632 -24.601891
v -18.759174 0.482632 -24.601891
v 16.478619 0.482632 38.417374
v 25.633776 0.482632 38.417374
v 16.478619 0.482632 29.262213
v 25.633776 0.482632 29.262213
v 16.478619 0.482632 29.293987
v 25.633776 0.482632 29.293987
v 16.478619 0.482632 20.138828
v 25.633776 0.482632 20.138828
v 7.505806 0.482632 29.351192
v 16.660963 0.482632 29.351192
v 7.505806 0.482632 20.196035
v 16.660963 0.482632 20.196035
v 7.419951 0.482632 38.417374
v 16.575109 0.482632 38.417374
v 7.419951 0.482632 29.262213
v 16.575109 0.482632 29.262213
v -1.190857 0.482632 38.417374
v 7.964303 0.482632 38.417374
v -1.190857 0.482632 29.262213
v 7.964303 0.482632 29.262213
v -1.190857 0.482632 29.293987
v 7.964303 0.482632 29.293987
v -1.190857 0.482632 20.138828
v 7.964303 0.482632 20.138828
v -10.163666 0.482632 29.351192
v -1.008509 0.482632 29.351192
v -10.163666 0.482632 20.196035
v -1.008509 0.482632 20.196035
v -10.249523 0.482632 38.417374
v -1.094364 0.482632 38.417374
v -10.249523 0.482632 29.262213
v -1.094364 0.482632 29.262213
v -1.190857 0.482632 20.241320
v 7.964303 0.482632 20.241320
v -1.190857 0.482632 11.086163
v 7.964303 0.482632 11.086163
v -1.190857 0.482632 11.117937
v 7.964303 0.482632 11.117937
v -1.190857 0.482632 1.962781
v 7.964303 0.482632 1.962781
v -10.163666 0.482632 11.175142
v -1.008509 0.482632 11.175142
v -10.163666 0.482632 2.019988
v -1.008509 0.482632 2.019988
v -10.249523 0.482632 20.241320
v -1.094364 0.482632 20.241320
v -10.249523 0.482632 11.086163
v -1.094364 0.482632 11.086163
v 16.478617 0.482632 20.441830
v 25.633774 0.482632 20.441830
v 16.478617 0.482632 11.286671
v 25.633774 0.482632 11.286671
v 16.478617 0.482632 11.318445
v 25.633774 0.482632 11.318445
v 16.478617 0.482632 2.163290
v 25.633774 0.482632 2.163290
v 7.505804 0.482632 11.375652
v 16.660963 0.482632 11.375652
v 7.505804 0.482632 2.220496
v 16.660963 0.482632 2.220496
v 7.419950 0.482632 20.441830
v 16.575108 0.482632 20.441830
v 7.419950 0.482632 11.286671
v 16.575108 0.482632 11.286671
v -18.896549 0.482632 38.417374
v -9.741388 0.482632 38.417374
v -18.896549 0.482632 29.262213
v -9.741388 0.482632 29.262213
v -18.896549 0.482632 29.293987
v -9.741388 0.482632 29.293987
v -18.896549 0.482632 20.138828
v -9.741388 0.482632 20.138828
v -27.869358 0.482632 29.351192
v -18.714199 0.482632 29.351192
v -27.869358 0.482632 20.196035
v -18.714199 0.482632 20.196035
v -27.955212 0.482632 38.417374
v -18.800053 0.482632 38.417374
v -27.955212 0.482632 29.262213
v -18.800053 0.482632 29.262213
v -36.566017 0.482632 38.417374
v -27.410862 0.482632 38.417374
v -36.566017 0.482632 29.262213
v -27.410862 0.482632 29.262213
v -36.566017 0.482632 29.293987
v -27.410862 0.482632 29.293987
v -36.566017 0.482632 20.138828
v -27.410862 0.482632 20.138828
v -45.538834 0.482632 29.351192
v -36.383675 0.482632 29.351192
v -45.538834 0.482632 20.196035
v -36.383675 0.482632 20.196035
v -45.624687 0.482632 38.417374
v -36.469528 0.482632 38.417374
v -45.624687 0.482632 29.262213
v -36.469528 0.482632 29.262213
v -36.566017 0.482632 20.241320
v -27.410862 0.482632 20.241320
v -36.566017 0.482632 11.086163
v -27.410862 0.482632 11.086163
v -36.566017 0.482632 11.117937
v -27.410862 0.482632 11.117937
v -36.566017 0.482632 1.962781
v -27.410862 0.482632 1.962781
v -45.538834 0.482632 11.175142
v -36.383675 0.482632 11.175142
v -45.538834 0.482632 2.019988
v -36.383675 0.482632 2.019988
v -45.624687 0.482632 20.241320
v -36.469528 0.482632 20.241320
v -45.624687 0.482632 11.086163
v -36.469528 0.482632 11.086163
v -18.896549 0.482632 20.441830
v -9.741390 0.482632 20.441830
v -18.896549 0.482632 11.286671
v -9.741390 0.482632 11.286671
v -18.896549 0.482632 11.318445
v -9.741390 0.482632 11.318445
v -18.896549 0.482632 2.163290
v -9.741390 0.482632 2.163290
v -27.869358 0.482632 11.375652
v -18.714199 0.482632 11.375652
v -27.869358 0.482632 2.220496
v -18.714199 0.482632 2.220496
v -27.955215 0.482632 20.441830
v -18.800056 0.482632 20.441830
v -27.955215 0.482632 11.286671
v -18.800056 0.482632 11.286671
vn -0.0000 1.0000 -0.0000
vt 0.000000 0.000000
vt 1.000000 0.000000
vt 1.000000 1.000000
vt 0.000000 1.000000
s 0
usemtl Material.005
f 1/1/1 2/2/1 4/3/1 3/4/1
usemtl Material.006
f 5/1/1 6/2/1 8/3/1 7/4/1
usemtl Material.007
f 9/1/1 10/2/1 12/3/1 11/4/1
usemtl Material.008
f 13/1/1 14/2/1 16/3/1 15/4/1
usemtl Material.001
f 17/1/1 18/2/1 20/3/1 19/4/1
usemtl Material.002
f 21/1/1 22/2/1 24/3/1 23/4/1
usemtl Material.003
f 25/1/1 26/2/1 28/3/1 27/4/1
usemtl Material.004
f 29/1/1 30/2/1 32/3/1 31/4/1
usemtl Material.014
f 33/1/1 34/2/1 36/3/1 35/4/1
usemtl Material.015
f 37/1/1 38/2/1 40/3/1 39/4/1
usemtl Material.016
f 41/1/1 42/2/1 44/3/1 43/4/1
usemtl Material.017
f 45/1/1 46/2/1 48/3/1 47/4/1
usemtl Material.018
f 49/1/1 50/2/1 52/3/1 51/4/1
usemtl Material.019
f 53/1/1 54/2/1 56/3/1 55/4/1
usemtl Material.020
f 57/1/1 58/2/1 60/3/1 59/4/1
usemtl Material.021
f 61/1/1 62/2/1 64/3/1 63/4/1
usemtl Material.022
f 65/1/1 66/2/1 68/3/1 67/4/1
usemtl Material.024
f 69/1/1 70/2/1 72/3/1 71/4/1
usemtl Material.025
f 73/1/1 74/2/1 76/3/1 75/4/1
usemtl Material.026
f 77/1/1 78/2/1 80/3/1 79/4/1
usemtl Material.027
f 81/1/1 82/2/1 84/3/1 83/4/1
usemtl Material.028
f 85/1/1 86/2/1 88/3/1 87/4/1
usemtl Material.037
f 89/1/1 90/2/1 92/3/1 91/4/1
usemtl Material.038
f 93/1/1 94/2/1 96/3/1 95/4/1
usemtl Material.039
f 97/1/1 98/2/1 100/3/1 99/4/1
usemtl Material.040
f 101/1/1 102/2/1 104/3/1 103/4/1
usemtl Material.041
f 105/1/1 106/2/1 108/3/1 107/4/1
usemtl Material.042
f 109/1/1 110/2/1 112/3/1 111/4/1
usemtl Material.043
f 113/1/1 114/2/1 116/3/1 115/4/1
usemtl Material.044
f 117/1/1 118/2/1 120/3/1 119/4/1
usemtl Material.045
f 121/1/1 122/2/1 124/3/1 123/4/1
usemtl Material.046
f 125/1/1 126/2/1 128/3/1 127/4/1
usemtl Material.047
f 129/1/1 130/2/1 132/3/1 131/4/1
usemtl Material.048
f 133/1/1 134/2/1 136/3/1 135/4/1
usemtl Material.049
f 137/1/1 138/2/1 140/3/1 139/4/1
usemtl Material.050
f 141/1/1 142/2/1 144/3/1 143/4/1
usemtl Material.051
f 145/1/1 146/2/1 148/3/1 147/4/1
usemtl Material.052
f 149/1/1 150/2/1 152/3/1 151/4/1
usemtl Material.053
f 153/1/1 154/2/1 156/3/1 155/4/1
usemtl Material.054
f 157/1/1 158/2/1 160/3/1 159/4/1
usemtl Material.055
f 161/1/1 162/2/1 164/3/1 163/4/1
usemtl Material.056
f 165/1/1 166/2/1 168/3/1 167/4/1
usemtl Material.057
f 169/1/1 170/2/1 172/3/1 171/4/1
usemtl Material.058
f 173/1/1 174/2/1 176/3/1 175/4/1
usemtl Material.059
f 177/1/1 178/2/1 180/3/1 179/4/1
usemtl Material.060
f 181/1/1 182/2/1 184/3/1 183/4/1
usemtl Material.061
f 185/1/1 186/2/1 188/3/1 187/4/1
usemtl Material.062
f 189/1/1 190/2/1 192/3/1 191/4/1
usemtl Material.063
f 193/1/1 194/2/1 196/3/1 195/4/1
usemtl Material.064
f 197/1/1 198/2/1 200/3/1 199/4/1
usemtl Material.065
f 201/1/1 202/2/1 204/3/1 203/4/1
usemtl Material.066
f 205/1/1 206/2/1 208/3/1 207/4/1
usemtl Material.067
f 209/1/1 210/2/1 212/3/1 211/4/1
usemtl Material.068
f 213/1/1 214/2/1 216/3/1 215/4/1
usemtl Material.069
f 217/1/1 218/2/1 220/3/1 219/4/1
usemtl Material.070
f 221/1/1 222/2/1 224/3/1 223/4/1
usemtl Material.071
f 225/1/1 226/2/1 228/3/1 227/4/1
usemtl Material.072
f 229/1/1 230/2/1 232/3/1 231/4/1
usemtl Material.073
f 233/1/1 234/2/1 236/3/1 235/4/1
usemtl Material.074
f 237/1/1 238/2/1 240/3/1 239/4/1
usemtl Material.075
f 241/1/1 242/2/1 244/3/1 243/4/1
usemtl Material.076
f 245/1/1 246/2/1 248/3/1 247/4/1
usemtl Material.077
f 249/1/1 250/2/1 252/3/1 251/4/1
usemtl Material.078
f 253/1/1 254/2/1 256/3/1 255/4/1
